<svg width="14" height="14" viewBox="0 0 14 14" fill="none" xmlns="http://www.w3.org/2000/svg">
<path d="M4.97168 4.74366C5.18244 4.33671 5.40291 3.9351 5.63309 3.53884C6.2398 2.49184 6.89964 1.47654 7.61004 0.496931C7.62799 0.471487 7.65442 0.453263 7.68458 0.445522C7.71474 0.437781 7.74668 0.441028 7.77466 0.454683L8.12285 0.619307C8.14492 0.629571 8.16369 0.645773 8.17707 0.6661C8.19045 0.686426 8.19791 0.710074 8.19861 0.734399C8.21755 0.971866 8.23649 1.02577 8.25688 1.02577C8.28537 1.01981 8.31319 1.01103 8.33992 0.999546C8.38663 0.97972 8.43554 0.965537 8.48561 0.957297C8.64878 0.935444 8.79883 0.999546 8.87605 1.3725L8.92121 1.36085C9.13682 1.30111 9.24754 1.27052 9.34952 1.33171C9.4515 1.3929 9.47481 1.51819 9.49521 1.76148L9.59427 1.74108C9.77784 1.70466 9.87253 1.68718 9.96431 1.74108C10.0561 1.79499 10.0823 1.89988 10.126 2.09801L10.1391 2.1592C10.1799 2.14755 10.2164 2.13443 10.2484 2.12278C10.4261 2.06451 10.5165 2.03245 10.6112 2.0849C10.7059 2.13735 10.7321 2.2437 10.7685 2.4564L10.7758 2.50448L10.8792 2.47534C10.9807 2.4277 11.0955 2.41688 11.2041 2.44474C11.3119 2.48699 11.3498 2.57877 11.4357 2.77545L11.459 2.83081L12.1292 2.94444C12.1464 2.94727 12.1629 2.95348 12.1778 2.9627C12.1926 2.97193 12.2055 2.984 12.2156 2.99822C12.2258 3.01243 12.233 3.02851 12.2369 3.04554C12.2409 3.06256 12.2414 3.08019 12.2385 3.09741C12.2362 3.10779 12.2333 3.11801 12.2297 3.12801C11.9908 3.67481 11.7392 4.21336 11.4751 4.74366H4.97168ZM7.31284 1.37833C8.02379 1.87657 8.70997 2.31363 9.41217 2.71718C10.1144 3.12072 10.8311 3.48931 11.6149 3.84915C11.7198 3.62771 11.8203 3.40335 11.9209 3.17608L11.3483 3.07848C11.3268 3.07468 11.3065 3.06565 11.2892 3.05219C11.2719 3.03873 11.2582 3.02125 11.2493 3.00126L11.1968 2.88034C11.1723 2.81471 11.1431 2.75093 11.1094 2.6895C11.0599 2.69864 11.0111 2.71179 10.9637 2.72883C10.8996 2.74777 10.818 2.76962 10.7233 2.79439H10.7059C10.6711 2.80034 10.6354 2.79236 10.6065 2.77218C10.5776 2.752 10.5578 2.72125 10.5514 2.68658C10.5398 2.62685 10.5281 2.55546 10.5179 2.49428C10.4975 2.36753 10.5063 2.318 10.4961 2.31217C10.4859 2.30634 10.4494 2.33402 10.3504 2.37044C10.2848 2.3923 10.2047 2.41852 10.0983 2.45057C10.0815 2.45468 10.064 2.45542 10.0469 2.45273C10.0298 2.45004 10.0133 2.44398 9.99858 2.4349C9.98381 2.42582 9.97099 2.41391 9.96086 2.39984C9.95073 2.38578 9.94348 2.36984 9.93955 2.35296C9.91915 2.26701 9.90458 2.20728 9.89293 2.14755C9.86525 2.0208 9.85214 1.95961 9.85068 1.95961C9.84922 1.95961 9.78804 1.96981 9.67294 1.99166C9.6103 2.00477 9.53454 2.01934 9.43402 2.03537H9.42091C9.38624 2.03867 9.35165 2.02836 9.32446 2.0066C9.29727 1.98485 9.27961 1.95337 9.27522 1.91882L9.26066 1.78625C9.24317 1.62454 9.23589 1.54587 9.23589 1.54587C9.23589 1.54587 9.15722 1.5648 9.01445 1.60414L8.83088 1.65367H8.81049C8.77597 1.65738 8.74138 1.64741 8.71413 1.62589C8.68689 1.60437 8.66918 1.57302 8.6648 1.53858C8.62692 1.24721 8.58759 1.19768 8.5468 1.20351C8.5174 1.21022 8.48863 1.21948 8.46084 1.23119C8.41125 1.25289 8.35872 1.26713 8.30496 1.27343C8.14471 1.28655 8.01359 1.20496 7.96843 0.814525L7.78923 0.728571C7.63481 0.938358 7.48475 1.15057 7.33907 1.36522L7.31284 1.37833Z" fill="#FF6600"/>
<path d="M12.5474 4.32812C12.7834 4.32812 12.8577 4.42428 13.0121 4.5787C13.0916 4.65773 13.1547 4.75171 13.1977 4.85522C13.2407 4.95874 13.2628 5.06975 13.2627 5.18184V6.19144C13.2625 6.30411 13.24 6.41564 13.1966 6.5196C13.1532 6.62357 13.0896 6.71793 13.0096 6.79727C12.9296 6.8766 12.8347 6.93934 12.7304 6.98188C12.6261 7.02442 12.5143 7.04592 12.4017 7.04516H11.8422L11.3557 13.2033C11.3426 13.3818 11.2661 13.5497 11.14 13.6768C11.0757 13.7418 10.999 13.7934 10.9144 13.8284C10.8298 13.8634 10.7391 13.8812 10.6476 13.8807H1.5758C1.62462 13.8784 1.67057 13.8569 1.7036 13.8209C1.73663 13.7849 1.75406 13.7372 1.75208 13.6884L0.840088 6.5196C0.842707 6.48015 1.733 6.85559 1.7142 6.8208L0.840088 5.22846L0.848829 4.32812H12.5474Z" fill="#2E1D1D" fill-opacity="0.8"/>
<path d="M7.68286 4.33598C7.82808 4.09506 8.06172 3.92044 8.33391 3.8494C8.6061 3.77836 8.89527 3.81652 9.13971 3.95574C9.29953 4.04693 9.43303 4.17793 9.52724 4.33598H7.68286Z" fill="white"/>
<path fill-rule="evenodd" clip-rule="evenodd" d="M4.97174 7.28711V11.5557H3.46973V7.28711H4.97174ZM8.70566 7.28711V11.5557H7.20364V7.28711H8.70566Z" fill="white"/>
<path d="M3.75807 3.016C3.89413 3.20185 3.9908 3.41353 4.04215 3.63807C4.09578 3.86704 4.11444 4.10281 4.09751 4.33736H5.23532C5.19822 3.96529 5.01736 3.62239 4.73124 3.38167C4.45055 3.16551 4.11165 3.03817 3.75807 3.016ZM3.89064 4.33736C3.90722 4.11904 3.89052 3.89946 3.84111 3.68615C3.80721 3.51602 3.73944 3.35445 3.64183 3.21104C3.54422 3.06763 3.41877 2.94532 3.27293 2.85137C2.9764 2.70406 2.64124 2.65312 2.31433 2.70569C2.01782 2.76011 1.7455 2.90518 1.53491 3.12089C1.31361 3.34582 1.15361 3.62368 1.07017 3.92799C1.03346 4.06132 1.01003 4.19796 1.00024 4.33591L3.89064 4.33736Z" fill="#FF714C"/>
<path d="M3.51475 2.77197C3.52669 2.68653 3.5457 2.60223 3.57156 2.51994C3.5283 2.46635 3.47947 2.41751 3.42588 2.37425C3.38145 2.40121 3.3352 2.42506 3.28748 2.44564C3.10419 2.52561 2.90415 2.55962 2.70474 2.5447C2.65229 2.5447 2.59984 2.54033 2.5474 2.53159C2.5168 2.53159 2.48621 2.51994 2.45416 2.51265C2.13303 2.43143 1.85115 2.23886 1.65872 1.96925C1.57697 1.85659 1.50853 1.73487 1.45476 1.60649C1.44399 1.58175 1.44347 1.55376 1.4533 1.52864C1.46313 1.50352 1.48251 1.48332 1.5072 1.47246H1.51886C1.62186 1.43371 1.72691 1.40063 1.83354 1.37339C1.94123 1.34596 2.05079 1.32649 2.16133 1.31512C2.47868 1.27335 2.80092 1.3379 3.07769 1.49868C3.202 1.57821 3.30877 1.68229 3.39144 1.80454C3.4741 1.92679 3.53094 2.06464 3.55845 2.20963C3.59342 2.23876 3.62692 2.27081 3.65898 2.30141C3.69434 2.23166 3.73682 2.16576 3.78572 2.10473C3.94759 1.91065 4.16613 1.77209 4.41071 1.70847C4.43583 1.70327 4.46198 1.70774 4.48395 1.72096C4.50593 1.73419 4.52211 1.75521 4.52928 1.77984C4.53645 1.80446 4.53407 1.83089 4.52263 1.85384C4.51118 1.87679 4.49151 1.89459 4.46753 1.90369C4.26484 1.95876 4.08448 2.07593 3.9518 2.23876C3.88363 2.32362 3.83087 2.41977 3.79592 2.52285C3.79389 2.53092 3.79096 2.53874 3.78718 2.54616C3.7541 2.64499 3.73163 2.74706 3.72016 2.85064L3.51475 2.77197ZM3.24377 2.24168C3.16797 2.19685 3.0891 2.15742 3.00776 2.12367C2.73491 2.0162 2.44271 1.96659 2.14968 1.97799C2.1238 1.97507 2.09998 1.9625 2.08296 1.94278C2.06595 1.92307 2.057 1.89766 2.05789 1.87164C2.05751 1.85824 2.05976 1.8449 2.06453 1.83238C2.0693 1.81986 2.07649 1.8084 2.08569 1.79866C2.09489 1.78892 2.10592 1.78109 2.11815 1.77561C2.13038 1.77013 2.14357 1.76712 2.15696 1.76674C2.47845 1.75632 2.79855 1.81339 3.09663 1.93428C3.16406 1.96125 3.22975 1.99239 3.2933 2.02752C3.22561 1.88038 3.11684 1.75592 2.98008 1.66913C2.74032 1.53121 2.46169 1.47641 2.18755 1.51325C2.08936 1.52342 1.992 1.54046 1.89618 1.56424C1.83062 1.58027 1.76507 1.60066 1.70096 1.62106C1.74079 1.70002 1.78708 1.77555 1.83937 1.84687C2.00398 2.07839 2.2457 2.24367 2.52117 2.31306C2.75661 2.37142 3.00466 2.35147 3.22775 2.25625L3.26271 2.24022L3.24377 2.24168Z" fill="black"/>
<path d="M3.68535 2.84159C4.10288 2.85285 4.50599 2.99674 4.83627 3.25242C5.09988 3.46712 5.28569 3.76245 5.36511 4.09303C5.38557 4.17296 5.40018 4.25427 5.40881 4.33632H5.20485C5.1977 4.271 5.18602 4.20626 5.16989 4.14256C5.10129 3.85585 4.93997 3.5998 4.71098 3.41413C4.43636 3.20111 4.1037 3.07617 3.75674 3.05575C3.8903 3.23749 3.98502 3.44478 4.035 3.66471C4.08705 3.88602 4.10571 4.11387 4.09036 4.34069H3.8864C3.90201 4.13017 3.88581 3.91849 3.83832 3.71279C3.80525 3.54558 3.73879 3.38676 3.64291 3.24583C3.54704 3.1049 3.42373 2.98475 3.28035 2.89258C2.98974 2.74799 2.66143 2.69709 2.34068 2.7469C2.04925 2.80049 1.78157 2.94299 1.57437 3.15482C1.35809 3.37559 1.20165 3.64785 1.11984 3.94589C1.08431 4.07348 1.06137 4.20425 1.05136 4.33632H0.845947C0.855235 4.18832 0.880638 4.04177 0.921704 3.89927C1.0134 3.56944 1.18793 3.26853 1.42869 3.02516C1.66496 2.78354 1.97036 2.62116 2.3028 2.56042C2.375 2.54746 2.44802 2.53967 2.52133 2.53711L2.8127 2.55168C2.99182 2.57666 3.16676 2.62566 3.3328 2.69736L3.35756 2.70756L3.36922 2.71485C3.40855 2.73378 3.44934 2.75272 3.48868 2.77458V2.76584L3.6839 2.83868V2.84742L3.68535 2.84159Z" fill="black"/>
<path d="M3.27158 2.24793C3.19449 2.20185 3.11415 2.16144 3.0312 2.12701C2.75359 2.01584 2.45599 1.96326 2.15709 1.97259C2.14257 1.97432 2.12786 1.97295 2.11391 1.96858C2.09996 1.96421 2.08709 1.95694 2.07616 1.94723C2.06523 1.93753 2.05648 1.92561 2.05049 1.91228C2.04449 1.89895 2.0414 1.8845 2.0414 1.86988C2.0414 1.85526 2.04449 1.84081 2.05049 1.82748C2.05648 1.81414 2.06523 1.80223 2.07616 1.79253C2.08709 1.78282 2.09996 1.77554 2.11391 1.77117C2.12786 1.7668 2.14257 1.76544 2.15709 1.76717C2.48345 1.75663 2.80843 1.81419 3.11133 1.93617C3.1798 1.9653 3.24681 1.9959 3.31091 2.03086C3.24083 1.88187 3.12963 1.75601 2.99041 1.6681C2.74775 1.52788 2.46545 1.47203 2.18768 1.50931C2.08556 1.51957 1.98429 1.5371 1.88466 1.56175C1.81764 1.57778 1.75208 1.59818 1.68652 1.62003C1.72872 1.69968 1.77745 1.7757 1.83221 1.8473C1.9992 2.08242 2.24456 2.2503 2.52421 2.32077C2.763 2.37981 3.01448 2.35988 3.24099 2.26396L3.27595 2.24793H3.27158Z" fill="#5E990B"/>
</svg>
