<svg width="24" height="24" viewBox="0 0 24 24" fill="none" xmlns="http://www.w3.org/2000/svg">
<path d="M11.9999 0C15.3137 0 18.3136 1.34315 20.4852 3.51482C22.6569 5.68648 24 8.68645 24 12.0001C24 15.3137 22.6569 18.3137 20.4852 20.4854C18.3136 22.6568 15.3137 24 11.9999 24C8.68631 24 5.68638 22.6568 3.51476 20.4854C1.34313 18.3139 0 15.3137 0 12.0001C0 8.68626 1.34313 5.68628 3.51476 3.51482C5.68638 1.34315 8.68631 0 11.9999 0ZM13.9405 8.23548C14.2795 7.88705 14.2715 7.32982 13.9233 6.99096C13.5751 6.65209 13.0177 6.65971 12.6786 7.00815L8.41347 11.4065L9.04431 12.0202L8.41073 11.4058C8.07148 11.7558 8.08008 12.3144 8.43007 12.6538C8.44022 12.6636 8.45038 12.6731 8.46093 12.6823L12.6786 16.9952C13.0177 17.3436 13.5751 17.3512 13.9233 17.0124C14.2715 16.6737 14.2795 16.1163 13.9405 15.7678L10.2728 12.0177L13.9405 8.23548ZM19.237 4.76285C17.3851 2.91072 14.8262 1.76522 11.9999 1.76522C9.1736 1.76522 6.61488 2.91072 4.76277 4.76285C2.91067 6.61499 1.76519 9.17375 1.76519 12.0001C1.76519 14.8264 2.91067 17.3852 4.76297 19.2373C6.61488 21.0895 9.1736 22.2352 12.0001 22.2352C14.8266 22.2352 17.3853 21.0897 19.2372 19.2373C21.0895 17.3854 22.2352 14.8264 22.2352 12.0001C22.235 9.17375 21.0893 6.61499 19.237 4.76285Z" fill="white"/>
</svg>
