<svg width="11" height="11" viewBox="0 0 11 11" fill="none" xmlns="http://www.w3.org/2000/svg">
<path fill-rule="evenodd" clip-rule="evenodd" d="M0.132471 1.85434C1.00479 2.43408 1.87018 3.01713 2.60065 3.76785C2.18193 5.5571 3.8531 6.98665 5.37724 7.82887C5.9739 8.15857 6.23762 8.38971 6.90184 8.27862L9.5176 10.758C4.59495 12.3574 -0.929548 5.64733 0.132471 1.85434ZM7.57614 7.64114L8.14994 7.07734C8.3154 6.9145 8.58856 6.91244 8.75688 7.07259L10.8724 9.08762C11.0406 9.24777 11.0428 9.51203 10.8773 9.67478L10.3033 10.2387C10.1378 10.4014 9.86461 10.4035 9.69629 10.2433L7.58076 8.22831C7.41244 8.06824 7.41041 7.80398 7.57614 7.64114ZM0.648073 0.668459L1.06448 0.179318C1.24298 -0.0303396 1.56648 -0.0605976 1.7832 0.112088L3.94897 1.83814C4.16568 2.011 4.19668 2.32379 4.01837 2.53371L3.60178 3.02259C3.42319 3.23251 3.09978 3.2625 2.88297 3.08982L0.717567 1.36377C0.500851 1.19108 0.469389 0.878117 0.648073 0.668459Z" fill="black" fill-opacity="0.6"/>
</svg>
