<svg width="50" height="50" viewBox="0 0 50 50" fill="none" xmlns="http://www.w3.org/2000/svg">
<path fill-rule="evenodd" clip-rule="evenodd" d="M24.9998 0C38.8071 0 50 11.1926 50 24.9996C50 38.807 38.8071 49.9996 24.9998 49.9996C11.1929 50 0 38.807 0 24.9996C0 11.1926 11.1929 0 24.9998 0ZM33.2513 14.7404C33.8059 14.1858 34.7047 14.1858 35.2597 14.7404C35.8143 15.295 35.8143 16.1943 35.2597 16.7489L27.0078 24.9996L35.2593 33.2507C35.8139 33.8053 35.8139 34.7046 35.2593 35.2596C34.7047 35.8138 33.8059 35.8138 33.2509 35.2596L24.9998 27.0085L16.7487 35.2596C16.1945 35.8138 15.2949 35.8138 14.7403 35.2596C14.1857 34.705 14.1857 33.8057 14.7403 33.2507L22.9914 24.9996L14.7403 16.7489C14.1857 16.1943 14.1857 15.295 14.7403 14.7404C15.2949 14.1858 16.1941 14.1858 16.7487 14.7404L24.9998 22.9915L33.2513 14.7404Z" fill="#E31E24"/>
</svg>
