<svg width="71" height="73" viewBox="0 0 71 73" fill="none" xmlns="http://www.w3.org/2000/svg">
<path d="M64.6865 11.6406C64.442 11.3769 64.027 11.3704 63.7742 11.6262L49.2897 26.2893C48.8246 26.792 48.0708 26.792 47.6046 26.2893C47.1406 25.7889 47.1396 24.9748 47.6046 24.4744L61.2593 8.79078C61.4757 8.54224 61.4699 8.17054 61.2458 7.9289C60.9961 7.6596 60.5722 7.65293 60.3142 7.91423L45.8405 22.5696C45.3754 23.0712 44.6195 23.0712 44.1555 22.5696C43.6904 22.068 43.6904 21.2528 44.1555 20.7513L57.8089 5.06885C58.0248 4.82088 58.0191 4.45006 57.7957 4.20883C57.5466 3.93977 57.1233 3.93295 56.8656 4.19385L42.3902 18.8476C41.9251 19.3515 41.1703 19.3515 40.7052 18.8476C40.2412 18.3483 40.2412 17.5343 40.7052 17.0339L54.3682 1.33951C54.5798 1.09648 54.5739 0.732964 54.3545 0.496962C54.1051 0.228669 53.6802 0.228943 53.4312 0.497557L36.1868 19.0955C34.0324 21.4189 34.0324 25.1835 36.1868 27.5069L39.5772 31.1632C41.7316 33.4843 45.2257 33.4843 47.379 31.1632L64.6865 12.4994C64.9111 12.2572 64.9111 11.8828 64.6865 11.6406Z" fill="url(#paint0_linear_2045_1538)"/>
<path d="M40.3554 27.2759C39.5801 26.4401 38.2678 26.409 37.4537 27.2072L1.25335 62.7003C-0.417783 64.5037 -0.417783 67.4266 1.25335 69.2277C2.92662 71.0333 5.637 71.0333 7.3092 69.2277L40.419 29.9579C41.0781 29.1761 41.0508 28.0256 40.3554 27.2759Z" fill="url(#paint1_linear_2045_1538)"/>
<path d="M30.1538 29.0845C29.4584 29.8342 29.4311 30.9847 30.0903 31.7665L63.199 71.0363C64.8701 72.8419 67.5826 72.8419 69.2548 71.0363C70.926 69.2352 70.926 66.3123 69.2548 64.5089L33.0556 29.0158C32.2415 28.2176 30.9292 28.2487 30.1538 29.0845Z" fill="url(#paint2_linear_2045_1538)"/>
<path d="M28.5576 8.07871C21.7683 0.755755 13.078 -1.74404 9.14767 2.49684C5.21736 6.73657 7.53427 16.1062 14.3247 23.4291C21.1129 30.7486 29.8032 33.2484 33.7335 29.0121C37.6638 24.7713 35.3469 15.4005 28.5576 8.07871Z" fill="url(#paint3_linear_2045_1538)"/>
<defs>
<linearGradient id="paint0_linear_2045_1538" x1="36.1322" y1="6.04355e-09" x2="41.7914" y2="35.3971" gradientUnits="userSpaceOnUse">
<stop stop-color="#E1A56E"/>
<stop offset="0.66656" stop-color="#CC5500"/>
</linearGradient>
<linearGradient id="paint1_linear_2045_1538" x1="2.12701" y1="25.75" x2="9.83803" y2="73.9787" gradientUnits="userSpaceOnUse">
<stop stop-color="#E1A56E"/>
<stop offset="0.66656" stop-color="#CC5500"/>
</linearGradient>
<linearGradient id="paint2_linear_2045_1538" x1="31.0629" y1="27.5586" x2="38.7741" y2="75.7872" gradientUnits="userSpaceOnUse">
<stop stop-color="#E1A56E"/>
<stop offset="0.66656" stop-color="#CC5500"/>
</linearGradient>
<linearGradient id="paint3_linear_2045_1538" x1="8.6876" y1="0.431641" x2="13.9584" y2="33.3959" gradientUnits="userSpaceOnUse">
<stop stop-color="#E1A56E"/>
<stop offset="0.66656" stop-color="#CC5500"/>
</linearGradient>
</defs>
</svg>
