<svg width="103" height="111" viewBox="0 0 103 111" fill="none" xmlns="http://www.w3.org/2000/svg">
<mask id="mask0_727_997" style="mask-type:luminance" maskUnits="userSpaceOnUse" x="52" y="18" width="32" height="34">
<path d="M52.8086 18.7988H83.6117V51.8115H52.8086V18.7988Z" fill="white"/>
</mask>
<g mask="url(#mask0_727_997)">
<path d="M83.1334 30.5176C82.8889 30.2539 82.4738 30.2473 82.2211 30.5032L67.7365 45.1663C67.2714 45.669 66.5176 45.669 66.0515 45.1663C65.5875 44.6658 65.5864 43.8518 66.0515 43.3514L79.7062 27.6677C79.9226 27.4192 79.9167 27.0475 79.6927 26.8059C79.443 26.5366 79.0191 26.5299 78.761 26.7912L64.2873 41.4466C63.8222 41.9481 63.0663 41.9481 62.6023 41.4466C62.1372 40.945 62.1372 40.1298 62.6023 39.6282L76.2558 23.9458C76.4717 23.6978 76.466 23.327 76.2426 23.0858C75.9934 22.8167 75.5701 22.8099 75.3124 23.0708L60.8371 37.7245C60.372 38.2284 59.6171 38.2284 59.1521 37.7245C58.688 37.2253 58.688 36.4112 59.1521 35.9108L72.8151 20.2165C73.0267 19.9734 73.0207 19.6099 72.8013 19.3739C72.5519 19.1056 72.1271 19.1059 71.878 19.3745L54.6337 37.9724C52.4793 40.2958 52.4793 44.0605 54.6337 46.3839L58.0241 50.0402C60.1785 52.3612 63.6726 52.3612 65.8259 50.0402L83.1334 31.3764C83.358 31.1342 83.358 30.7598 83.1334 30.5176Z" fill="url(#paint0_linear_727_997)"/>
</g>
<path d="M58.8022 46.1529C58.0269 45.317 56.7146 45.2859 55.9005 46.0841L19.7002 81.5773C18.0291 83.3806 18.0291 86.3036 19.7002 88.1046C21.3735 89.9103 24.0838 89.9103 25.756 88.1046L58.8658 48.8348C59.5249 48.0531 59.4977 46.9025 58.8022 46.1529Z" fill="url(#paint1_linear_727_997)"/>
<path d="M48.6007 47.9615C47.9053 48.7111 47.878 49.8617 48.5371 50.6434L81.6458 89.9132C83.317 91.7189 86.0295 91.7189 87.7017 89.9132C89.3728 88.1122 89.3728 85.1892 87.7017 83.3859L51.5024 47.8927C50.6883 47.0946 49.376 47.1256 48.6007 47.9615Z" fill="url(#paint2_linear_727_997)"/>
<path d="M47.0044 26.9557C40.2151 19.6327 31.5248 17.1329 27.5945 21.3738C23.6642 25.6135 25.9811 34.9831 32.7715 42.3061C39.5597 49.6256 48.25 52.1254 52.1804 47.8891C56.1107 43.6482 53.7938 34.2775 47.0044 26.9557Z" fill="url(#paint3_linear_727_997)"/>
<defs>
<linearGradient id="paint0_linear_727_997" x1="54.579" y1="18.877" x2="60.2383" y2="54.2741" gradientUnits="userSpaceOnUse">
<stop stop-color="#E1A56E"/>
<stop offset="0.66656" stop-color="#CC5500"/>
</linearGradient>
<linearGradient id="paint1_linear_727_997" x1="20.5738" y1="44.627" x2="28.2849" y2="92.8557" gradientUnits="userSpaceOnUse">
<stop stop-color="#E1A56E"/>
<stop offset="0.66656" stop-color="#CC5500"/>
</linearGradient>
<linearGradient id="paint2_linear_727_997" x1="49.5098" y1="46.4355" x2="57.221" y2="94.6642" gradientUnits="userSpaceOnUse">
<stop stop-color="#E1A56E"/>
<stop offset="0.66656" stop-color="#CC5500"/>
</linearGradient>
<linearGradient id="paint3_linear_727_997" x1="27.1344" y1="19.3086" x2="32.4053" y2="52.2728" gradientUnits="userSpaceOnUse">
<stop stop-color="#E1A56E"/>
<stop offset="0.66656" stop-color="#CC5500"/>
</linearGradient>
</defs>
</svg>
