<svg width="33" height="27" viewBox="0 0 33 27" fill="none" xmlns="http://www.w3.org/2000/svg">
<path fill-rule="evenodd" clip-rule="evenodd" d="M18.8846 2.02741C18.5563 1.93774 18.3994 1.55357 18.6445 1.31735C21.0868 -1.0365 27.1151 -0.235943 27.1151 3.71903V5.03945C27.1151 5.63195 27.091 5.64888 27.3293 5.95843C27.5087 6.19543 27.5515 6.22203 27.6131 6.51224C27.6934 6.8895 27.6988 7.27644 27.7041 7.67305C27.7148 8.28974 27.4551 8.46628 27.1071 8.96688L25.6317 11.0926C25.1739 11.7553 25.1016 12.1615 25.2837 12.9983C25.6109 14.4973 29.2696 15.4696 31.5499 16.1375C32.3758 16.3794 32.9038 17.1391 32.9038 17.9996V18.1593C32.9038 19.2344 32.0323 20.1059 30.9573 20.1059H29.7364C29.3356 20.1059 29.0108 19.781 29.0108 19.3803C29.0108 19.0838 28.8304 18.8171 28.5552 18.7068L27.9371 18.459C27.4391 18.2582 26.7563 18.0599 25.9691 17.8326C24.1056 17.2909 21.4575 16.5218 21.3558 16.0551C21.3049 15.8229 21.2835 15.6803 21.2969 15.6101C21.3049 15.5643 21.3609 15.4727 21.4621 15.3235C21.4624 15.323 21.4621 15.3223 21.4615 15.3223C21.461 15.3223 21.4606 15.3217 21.461 15.3212L22.9301 13.2039L23.0962 12.9814C23.5272 12.413 23.8164 12.0309 23.803 11.0249C23.8003 10.7831 23.795 10.5437 23.7843 10.3695C23.7683 10.1123 23.7391 9.85271 23.6835 9.59072C23.6829 9.58757 23.6825 9.58436 23.6825 9.58114C23.6825 9.57792 23.6822 9.57462 23.6815 9.57148C23.5673 9.03597 23.4853 8.89338 23.2344 8.56767C23.2212 8.55058 23.214 8.52954 23.214 8.50797V8.41467C23.214 8.41245 23.2158 8.41065 23.218 8.41065C23.2202 8.41065 23.222 8.40886 23.222 8.40664V7.09023C23.222 4.49819 21.4635 2.84415 19.2149 2.12811C19.2142 2.12789 19.2138 2.12725 19.2138 2.12653C19.2138 2.12581 19.2133 2.12518 19.2126 2.12496C19.1041 2.08997 18.9947 2.05748 18.8846 2.02741ZM1.85966 26.0959C0.832632 26.0961 0 25.2635 0 24.2365C0 23.4768 0.463898 22.8032 1.18717 22.5708C3.5748 21.8036 7.83432 20.5321 8.17174 18.9862C8.35381 18.147 8.28152 17.7431 7.82367 17.0805L6.34836 14.9547C6.00296 14.4566 5.74325 14.2776 5.75128 13.6609C5.75663 13.3151 5.76199 12.9717 5.81822 12.638C5.88783 12.2123 5.94674 12.1978 6.19307 11.8568C6.35907 11.6271 6.34033 11.5569 6.34033 11.0273V9.7069C6.34033 7.03702 9.08745 5.80366 11.623 6.00922C13.7999 6.18334 15.8214 7.41671 15.8214 9.7069V11.0273C15.8214 11.6198 15.7973 11.6368 16.0356 11.9463C16.215 12.1833 16.2578 12.2099 16.3194 12.5001C16.3997 12.8774 16.4051 13.2643 16.4104 13.6609C16.4211 14.2776 16.1614 14.4541 15.8133 14.9547L14.338 17.0805C13.8802 17.7431 13.8079 18.1494 13.99 18.9862C14.3172 20.4852 17.9758 21.4575 20.2561 22.1254C21.082 22.3673 21.6101 23.127 21.6101 23.9876C21.6101 25.1508 20.6672 26.0938 19.504 26.094L1.85966 26.0959ZM15.9445 6.03098C14.9139 5.11579 14.6627 3.52964 16.0348 3.39886C18.5975 3.15461 21.4147 4.38399 21.4147 7.08781V8.40824C21.4147 9.00315 21.3906 9.01766 21.6289 9.32721C21.8083 9.56421 21.8511 9.59082 21.9127 9.88102C21.993 10.2583 21.9984 10.6452 22.0037 11.0418C22.0144 11.6585 21.7547 11.8351 21.4066 12.3357L19.9313 14.4614C19.4735 15.124 19.4012 15.5303 19.5833 16.3671C19.9105 17.8661 23.5692 18.8384 25.8495 19.5063C26.6754 19.7482 27.2034 20.5079 27.2034 21.3684V21.5803C27.2034 22.6265 26.3553 23.4746 25.3091 23.4746H24.5876C23.9399 23.4746 23.4148 22.9496 23.4148 22.3019C23.4148 21.8226 23.1232 21.3916 22.6784 21.2133L22.3411 21.078C21.8431 20.8773 21.1603 20.679 20.3731 20.4517C18.5096 19.91 15.8615 19.1409 15.7598 18.6742C15.7089 18.4396 15.6875 18.2993 15.7009 18.2292C15.7089 18.1834 15.7649 18.0918 15.8661 17.9425C15.8665 17.9421 15.8661 17.9414 15.8656 17.9414C15.865 17.9414 15.8647 17.9408 15.865 17.9403L17.3342 15.8229L17.5002 15.6005C17.9312 15.0321 18.2204 14.65 18.207 13.644C18.2044 13.3997 18.199 13.1603 18.1883 12.9886C18.1723 12.731 18.143 12.471 18.0873 12.2086C18.0868 12.2063 18.0865 12.2039 18.0865 12.2014C18.0865 12.199 18.0863 12.1965 18.0858 12.1942C17.9714 11.6577 17.8895 11.5151 17.6384 11.1892C17.6252 11.1721 17.618 11.151 17.618 11.1295V11.0362C17.618 11.034 17.6198 11.0322 17.622 11.0322C17.6242 11.0322 17.626 11.0304 17.626 11.0281V9.71173C17.626 8.16398 16.97 6.93303 15.9445 6.03098Z" fill="url(#paint0_linear_2320_1158)"/>
<defs>
<linearGradient id="paint0_linear_2320_1158" x1="1.68345" y1="4.79314e-09" x2="5.02276" y2="28.3984" gradientUnits="userSpaceOnUse">
<stop stop-color="#E1A56E"/>
<stop offset="0.66656" stop-color="#CC5500"/>
</linearGradient>
</defs>
</svg>
