<svg width="23" height="23" viewBox="0 0 23 23" fill="none" xmlns="http://www.w3.org/2000/svg">
<path d="M2.86938 0H16.4414C17.202 0.00152719 17.9309 0.313124 18.4687 0.866567C19.0065 1.42001 19.3093 2.1702 19.3108 2.95289V11.4379C19.3093 12.2205 19.0065 12.9707 18.4687 13.5242C17.9309 14.0776 17.202 14.3892 16.4414 14.3907H7.83138L3.47396 18.2432C3.42568 18.2856 3.36975 18.3178 3.30936 18.338C3.24898 18.3581 3.18533 18.3658 3.12205 18.3606C3.05877 18.3554 2.9971 18.3375 2.94058 18.3077C2.88406 18.278 2.83379 18.2371 2.79264 18.1873C2.71055 18.0894 2.6695 17.9619 2.67847 17.8329L2.90682 14.3888H2.86938C2.10916 14.3873 1.38046 14.076 0.842722 13.5229C0.304982 12.9699 0.00197832 12.2202 0 11.4379V2.95289C0.00148401 2.1702 0.30427 1.42001 0.842063 0.866567C1.37986 0.313124 2.10883 0.00152719 2.86938 0ZM20.7183 6.22745C21.3592 6.35659 21.9367 6.71026 22.3527 7.22826C22.7687 7.74627 22.9975 8.39661 23 9.06862V16.1301C22.9966 16.8953 22.6996 17.6282 22.1739 18.1693C21.6481 18.7103 20.9359 19.0159 20.1924 19.0194H20.0913L20.3253 22.5367C20.3302 22.6221 20.3107 22.7071 20.2692 22.7812C20.2276 22.8553 20.1659 22.9153 20.0916 22.9536C20.0172 22.992 19.9336 23.007 19.8511 22.997C19.7685 22.9869 19.6907 22.9521 19.6271 22.8969L15.2528 18.9096H5.83984L8.67741 15.9394H18.3431C18.9749 15.9369 19.5801 15.6772 20.0265 15.2171C20.473 14.7569 20.7244 14.1337 20.7258 13.4835V6.422C20.7258 6.35651 20.7258 6.29102 20.7258 6.22938L20.7183 6.22745ZM5.69385 9.16493C5.62778 9.16916 5.56156 9.15942 5.49929 9.13631C5.43702 9.1132 5.38 9.07721 5.33176 9.03056C5.28352 8.98391 5.24508 8.92758 5.2188 8.86506C5.19252 8.80253 5.17896 8.73513 5.17896 8.667C5.17896 8.59888 5.19252 8.53147 5.2188 8.46895C5.24508 8.40642 5.28352 8.35009 5.33176 8.30344C5.38 8.25679 5.43702 8.2208 5.49929 8.19769C5.56156 8.17458 5.62778 8.16484 5.69385 8.16908H12.0578C12.1239 8.16484 12.1901 8.17458 12.2523 8.19769C12.3146 8.2208 12.3716 8.25679 12.4199 8.30344C12.4681 8.35009 12.5066 8.40642 12.5328 8.46895C12.5591 8.53147 12.5727 8.59888 12.5727 8.667C12.5727 8.73513 12.5591 8.80253 12.5328 8.86506C12.5066 8.92758 12.4681 8.98391 12.4199 9.03056C12.3716 9.07721 12.3146 9.1132 12.2523 9.13631C12.1901 9.15942 12.1239 9.16916 12.0578 9.16493H5.69385ZM5.69385 5.74975C5.62778 5.75398 5.56156 5.74424 5.49929 5.72113C5.43702 5.69802 5.38 5.66203 5.33176 5.61538C5.28352 5.56873 5.24508 5.5124 5.2188 5.44988C5.19252 5.38735 5.17896 5.31995 5.17896 5.25182C5.17896 5.1837 5.19252 5.1163 5.2188 5.05377C5.24508 4.99124 5.28352 4.93492 5.33176 4.88827C5.38 4.84161 5.43702 4.80562 5.49929 4.78251C5.56156 4.75941 5.62778 4.74967 5.69385 4.7539H14.171C14.2371 4.74967 14.3033 4.75941 14.3655 4.78251C14.4278 4.80562 14.4848 4.84161 14.5331 4.88827C14.5813 4.93492 14.6198 4.99124 14.646 5.05377C14.6723 5.1163 14.6859 5.1837 14.6859 5.25182C14.6859 5.31995 14.6723 5.38735 14.646 5.44988C14.6198 5.5124 14.5813 5.56873 14.5331 5.61538C14.4848 5.66203 14.4278 5.69802 14.3655 5.72113C14.3033 5.74424 14.2371 5.75398 14.171 5.74975H5.69385ZM16.4395 0.995853H2.86938C2.36518 0.996363 1.88176 1.20271 1.52523 1.56962C1.1687 1.93652 0.968188 2.43401 0.967692 2.95289V11.4379C0.969173 11.9564 1.17001 12.4533 1.52632 12.82C1.88264 13.1867 2.36548 13.3934 2.86938 13.3949H3.45898C3.58615 13.4043 3.70455 13.465 3.78835 13.5639C3.87215 13.6628 3.91456 13.7917 3.90633 13.9227L3.71916 16.7138L7.31104 13.5355C7.4018 13.4433 7.52413 13.3914 7.65169 13.391H16.4395C16.9428 13.389 17.425 13.1828 17.7814 12.8171C18.1378 12.4514 18.3397 11.9558 18.3431 11.4379V2.95289C18.3416 2.43398 18.1405 1.9368 17.7838 1.57006C17.4271 1.20332 16.9438 0.996869 16.4395 0.995853Z" fill="white"/>
</svg>
