<svg width="17" height="25" viewBox="0 0 17 25" fill="none" xmlns="http://www.w3.org/2000/svg">
<path d="M12.4087 4.23737V10.64C12.4087 16.1331 4.59138 16.1331 4.59138 10.64V4.23737C4.59138 -1.41246 12.4087 -1.41246 12.4087 4.23737ZM9.47072 19.6996V24.0473C9.45918 24.2925 9.35187 24.5239 9.17109 24.6934C8.99032 24.8629 8.74998 24.9575 8.50003 24.9575C8.25008 24.9575 8.00974 24.8629 7.82896 24.6934C7.64819 24.5239 7.54088 24.2925 7.52934 24.0473V19.6894C6.63623 19.5879 5.7654 19.3468 4.94982 18.9753C4.03852 18.5591 3.20832 17.9897 2.49668 17.2928L2.48632 17.2745C1.70096 16.503 1.07605 15.5888 0.646464 14.5828C0.21848 13.5718 -0.0012298 12.4876 2.87625e-05 11.3927C-0.00145676 11.2035 0.0546318 11.0182 0.161107 10.8604C0.267581 10.7027 0.419592 10.5798 0.597657 10.5075C0.775723 10.4351 0.971732 10.4166 1.16057 10.4544C1.3494 10.4921 1.52245 10.5844 1.65755 10.7193L1.67827 10.7396C1.84753 10.9165 1.94165 11.1501 1.94141 11.3927C1.94015 12.2348 2.10917 13.0688 2.43866 13.8463C3.11173 15.4306 4.39476 16.6898 6.00856 17.3498C6.80075 17.6734 7.6503 17.84 8.50832 17.84C9.36633 17.84 10.2159 17.6734 11.0081 17.3498C11.8054 17.0232 12.5297 16.5462 13.1401 15.9459L13.1566 15.9317C13.76 15.3347 14.2399 14.6286 14.5697 13.8524C14.8971 13.0725 15.0634 12.2364 15.0587 11.3927C15.0702 11.1475 15.1775 10.9162 15.3583 10.7467C15.5391 10.5772 15.7794 10.4826 16.0293 10.4826C16.2793 10.4826 16.5196 10.5772 16.7004 10.7467C16.8812 10.9162 16.9885 11.1475 17 11.3927C17.0009 12.4856 16.7812 13.5678 16.3536 14.5767C15.9231 15.5919 15.2946 16.5145 14.5034 17.2928L14.4847 17.3091C13.778 17.9986 12.9541 18.5618 12.0502 18.9733C11.2338 19.3445 10.3624 19.5856 9.46865 19.6874L9.47072 19.6996Z" fill="black" fill-opacity="0.6"/>
</svg>
