<svg width="22" height="22" viewBox="0 0 22 22" fill="none" xmlns="http://www.w3.org/2000/svg">
<path d="M10.9999 0C14.039 0 16.7845 1.23199 18.7791 3.22074C20.7678 5.2095 22 7.96111 22 11C22 14.0391 20.7678 16.7844 18.7791 18.7793C16.7905 20.768 14.039 22 10.9999 22C7.96105 22 5.21554 20.768 3.2209 18.7793C1.23198 16.7905 0 14.0389 0 11C0 7.96111 1.23198 5.21541 3.2209 3.22074C5.20946 1.23199 7.96105 0 10.9999 0ZM10.9999 6.06614C11.5337 6.06614 12.0443 6.1483 12.5252 6.30671L16.403 2.46988C14.8426 1.47846 12.9887 0.903362 10.9999 0.903362C9.11677 0.903362 7.35678 1.41975 5.84916 2.3172L9.72694 6.23619C10.1318 6.12467 10.56 6.07187 11.006 6.07187L10.9999 6.06614ZM13.3642 6.67041C13.7807 6.89916 14.1562 7.18089 14.4848 7.50934C14.8542 7.87895 15.1712 8.313 15.4059 8.78822L19.1664 5.06881C18.8557 4.64049 18.5094 4.23579 18.1339 3.86027C17.8111 3.53756 17.4709 3.23828 17.1074 2.96264L13.3584 6.67041H13.3642ZM15.7461 9.6565C15.8693 10.0848 15.9339 10.5366 15.9339 11C15.9339 11.54 15.846 12.0619 15.6817 12.5549L19.5126 16.427C20.5097 14.8605 21.0906 13.0006 21.0906 11.0002C21.0906 9.09358 20.5625 7.31603 19.6474 5.79641L15.7461 9.6565ZM15.3178 13.382C15.095 13.7869 14.8134 14.1563 14.4848 14.4849C14.1093 14.8605 13.6693 15.1771 13.1825 15.4176L16.9078 19.1782C17.342 18.8614 17.7528 18.5154 18.134 18.134C18.451 17.8172 18.7442 17.4827 19.0198 17.125L15.3178 13.382ZM12.3199 15.7522C11.8977 15.8692 11.4576 15.9279 10.9999 15.9279C10.4309 15.9279 9.89126 15.8343 9.38078 15.658L5.52054 19.4773C7.09868 20.4981 8.97609 21.0907 10.9942 21.0907C12.8891 21.0907 14.6667 20.5684 16.1804 19.6592L12.3142 15.7522H12.3199ZM8.56531 15.2886C8.17816 15.0715 7.82609 14.8016 7.51518 14.4908C7.12213 14.0976 6.79368 13.6399 6.55312 13.1355L2.78076 16.8666C3.10348 17.3242 3.46718 17.7465 3.86024 18.1456C4.15933 18.4445 4.48223 18.7322 4.8223 18.9903L8.5594 15.2945L8.56531 15.2886ZM6.23631 12.2556C6.13071 11.8566 6.07791 11.434 6.07791 11.0059C6.07791 10.4487 6.1717 9.91478 6.34192 9.41021L2.51693 5.54403C1.50207 7.11628 0.915347 8.9878 0.915347 11C0.915347 12.8715 1.42582 14.6313 2.31736 16.1332L6.23631 12.2497V12.2556ZM6.71153 8.58883C6.93455 8.19577 7.20428 7.83797 7.52109 7.52115C7.90824 7.134 8.36019 6.81128 8.85867 6.57072L5.13339 2.80423C4.68753 3.12695 4.26511 3.48475 3.87206 3.87191C3.56688 4.17709 3.27943 4.50553 3.00969 4.8517L6.71171 8.59473L6.71153 8.58883ZM13.8922 8.11952C13.153 7.38029 12.1322 6.92261 11.0058 6.92261C9.87944 6.92261 8.85867 7.38029 8.11945 8.11952C7.38023 8.85874 6.92255 9.87952 6.92255 11.0057C6.92255 12.1321 7.38023 13.1529 8.11945 13.8923C8.85867 14.6313 9.87944 15.089 11.0058 15.089C12.1322 15.089 13.153 14.6313 13.8922 13.8923C14.6314 13.1529 15.0891 12.1321 15.0891 11.0057C15.0891 9.87952 14.6314 8.85874 13.8922 8.11952Z" fill="white"/>
</svg>
