<svg width="19" height="15" viewBox="0 0 19 15" fill="none" xmlns="http://www.w3.org/2000/svg">
<path fill-rule="evenodd" clip-rule="evenodd" d="M10.2469 1.07428C11.3832 -0.652182 15.2828 -0.297714 15.2828 2.13769V2.89667C15.2828 3.23723 15.2692 3.24696 15.4035 3.42489C15.5046 3.56112 15.5287 3.57641 15.5635 3.74322C15.6087 3.96007 15.6117 4.18248 15.6148 4.41045C15.6208 4.76492 15.4744 4.86639 15.2782 5.15414L14.4467 6.37601C14.1887 6.75689 14.1479 6.99042 14.2505 7.47138C14.4799 8.54313 17.6143 9.14642 18.5455 9.5273V11.5568H16.3512V10.8576L15.7461 10.6102C15.4654 10.4948 15.0805 10.3808 14.6369 10.2501C13.5865 9.93876 12.094 9.49671 12.0367 9.22843C12.008 9.09498 11.9959 9.01297 12.0035 8.97266C12.008 8.94625 12.0397 8.89342 12.097 8.80724H12.0955L12.924 7.58954L13.0176 7.46165C13.2606 7.13499 13.4235 6.91536 13.416 6.33709C13.4145 6.19808 13.4115 6.06046 13.4054 5.96038C13.3964 5.81164 13.3798 5.66151 13.3481 5.51V5.50444C13.2817 5.18611 13.2349 5.10827 13.084 4.90949V4.83442H13.0885V4.07544C13.0885 2.58529 12.097 1.63448 10.8294 1.22302V1.22163C10.6392 1.15908 10.4446 1.11043 10.2469 1.07428ZM0 15V13.2082C0.931121 12.8273 4.37642 11.9849 4.6058 10.9132C4.70842 10.4308 4.66768 10.1987 4.40962 9.81782L3.5781 8.59595C3.38342 8.3096 3.23704 8.20673 3.24157 7.85226C3.24459 7.65348 3.2476 7.45609 3.2793 7.26426C3.31853 7.01961 3.35173 7.01127 3.49057 6.81527C3.58414 6.68321 3.57357 6.6429 3.57357 6.33848V5.5795C3.57357 4.04486 5.12192 3.33593 6.55105 3.45408C7.77795 3.55417 8.91733 4.2631 8.91733 5.5795V6.33848C8.91733 6.67904 8.90375 6.68877 9.03806 6.8667C9.13917 7.00293 9.16332 7.01822 9.19803 7.18503C9.2433 7.40188 9.24632 7.62429 9.24934 7.85226C9.25537 8.20673 9.10899 8.30821 8.9128 8.59595L8.08128 9.81782C7.82323 10.1987 7.78248 10.4322 7.8851 10.9132C8.11448 11.9849 11.2489 12.5882 12.18 12.9691V14.9986L0 15ZM7.35389 2.63811C8.76491 1.35369 12.0699 1.83187 12.0699 4.07405V4.83303C12.0699 5.17499 12.0563 5.18333 12.1906 5.36126C12.2917 5.49748 12.3158 5.51278 12.3506 5.67958C12.3958 5.89643 12.3988 6.11885 12.4019 6.34682C12.4079 6.70128 12.2615 6.80276 12.0653 7.0905L11.2338 8.31238C10.9758 8.69325 10.935 8.92679 11.0376 9.40775C11.267 10.4795 14.4014 11.0828 15.3326 11.4637V13.4932H13.1972V12.363L12.592 12.1156C12.3113 12.0002 11.9265 11.8862 11.4828 11.7556C10.4325 11.4442 8.93997 11.0022 8.88262 10.7339C8.85395 10.599 8.84188 10.5184 8.84942 10.4781C8.85395 10.4517 8.88564 10.3989 8.94299 10.3127H8.94148L9.76998 9.09499L9.86354 8.9671C10.1065 8.64043 10.2695 8.4208 10.2619 7.84253C10.2604 7.70213 10.2574 7.56452 10.2514 7.46582C10.2423 7.31709 10.2257 7.16696 10.194 7.01544V7.01127C10.1276 6.69294 10.0809 6.6151 9.92994 6.41632V6.34126H9.93447V5.58228C9.93447 4.69263 9.56474 3.98509 8.98675 3.46659C8.54005 3.06208 7.9681 2.78685 7.35389 2.63811Z" fill="#1595FF"/>
</svg>
