<svg width="50" height="50" viewBox="0 0 50 50" fill="none" xmlns="http://www.w3.org/2000/svg">
<circle cx="25" cy="25" r="25" fill="url(#paint0_linear_2609_848)"/>
<path d="M40.6967 10H29.1028C28.3361 10 27.5807 10.2158 26.9169 10.6178C23.8738 12.4663 20.3816 13.4439 16.8211 13.4439H16.3534C15.6266 13.4439 15.0313 14.062 15.0313 14.8298C15.0313 16.7368 14.7699 18.6348 14.2544 20.4708L13.0113 24.898C13.0055 24.928 13 24.958 13 24.9877V39.6817C13 39.8557 13.1373 40 13.3033 40H29.3489C29.3489 40 29.3489 40 29.3546 40H33.412C33.4233 40 33.4349 40 33.4406 40C33.4502 40 33.4558 40 33.4643 39.9963C33.4676 39.9949 33.4711 39.9939 33.4747 39.9939C33.4805 39.9939 33.4863 39.9879 33.4976 39.9879C33.5064 39.9879 33.5137 39.9801 33.5219 39.9768C33.5233 39.9762 33.5248 39.9757 33.5262 39.9757C33.5262 39.9757 33.5342 39.9674 33.5393 39.9646C33.5415 39.9635 33.5436 39.9625 33.5458 39.9609C33.5482 39.9592 33.5496 39.9586 33.5522 39.957C33.5547 39.9556 33.5559 39.9505 33.5582 39.9489C33.5616 39.9464 33.565 39.9453 33.5684 39.943C33.571 39.9413 33.5744 39.9404 33.5765 39.9381C33.5769 39.9378 33.5771 39.9374 33.5774 39.9369C33.5782 39.9351 33.5787 39.9331 33.58 39.9317C33.5824 39.9291 33.5849 39.9266 33.5874 39.9248C33.5899 39.923 33.5986 39.918 33.6008 39.9157C33.6066 39.91 33.6121 39.9039 33.6179 39.8978C33.6217 39.8938 33.6256 39.8897 33.6295 39.8858C33.6333 39.8819 33.6371 39.8779 33.6407 39.8739C33.6441 39.8704 33.6474 39.8668 33.6497 39.8633C33.6524 39.8589 33.6544 39.8536 33.6581 39.8499C33.6635 39.8439 33.6635 39.8378 33.6693 39.8317L33.6751 39.826C33.6773 39.8237 33.6786 39.8215 33.6798 39.8192C33.6837 39.8115 33.6922 39.8046 33.6922 39.796C33.6922 39.7899 33.6979 39.7839 33.6979 39.7778C33.6979 39.7689 33.7051 39.7613 33.7083 39.753C33.709 39.7513 33.7095 39.7495 33.7095 39.7478C33.7095 39.7417 33.7095 39.7417 33.7095 39.736C33.7095 39.7321 33.7095 39.7282 33.711 39.7227C33.7131 39.7152 33.7153 39.7077 33.7153 39.6999C33.7153 39.6878 33.7153 39.6759 33.7153 39.6699V24.9877C33.7153 24.958 33.7095 24.928 33.7037 24.898L32.0331 18.9394C31.9142 18.5155 32.0486 18.054 32.4163 17.812C32.7823 17.5719 33.1773 17.3797 33.5892 17.2418C33.7494 17.1878 33.9153 17.14 34.0758 17.0917C34.4991 16.966 34.9397 16.8398 35.3574 16.5458C35.9013 16.156 36.3933 15.694 36.8223 15.166C36.8796 15.0938 36.9484 15.0399 37.0285 14.998C37.1086 14.9559 37.1944 14.938 37.2861 14.938H40.6967C40.8627 14.938 41 14.794 41 14.62V10.318C41 10.144 40.8627 10 40.6967 10ZM15.6378 14.824C15.6378 14.416 15.9585 14.0798 16.3476 14.0798H26.8614C28.2852 14.0798 29.0155 15.7856 28.0328 16.8159C27.709 17.1555 27.2921 17.4219 26.8229 17.4219H18.2357C16.8009 17.4219 15.6378 16.2588 15.6378 14.824ZM13.6066 26.1456C13.6066 25.4093 13.7073 24.6764 13.9058 23.9674L14.4135 22.1551C15.09 19.7397 17.2917 18.07 19.8001 18.07H24.0065C25.6521 18.07 26.8869 19.9492 28.0271 21.1358C28.1586 21.2737 28.3419 21.352 28.5307 21.352C28.7195 21.352 28.897 21.2737 29.0343 21.1358C29.4292 20.7218 30.1148 21.1124 29.96 21.6631L29.0514 24.898C29.0456 24.928 29.0398 24.958 29.0398 24.9877V31.6471C29.0398 35.9089 25.585 39.3637 21.3232 39.3637C17.0614 39.3637 13.6066 35.9089 13.6066 31.6471V26.1456ZM30.9794 38.4205C31.1979 38.1924 31.5626 38.1928 31.7806 38.4214C32.1169 38.7741 31.8669 39.358 31.3795 39.358C30.8916 39.358 30.6418 38.7729 30.9794 38.4205ZM33.1087 37.1336C33.1087 37.7758 32.3258 38.0903 31.8816 37.6264C31.7546 37.4938 31.6837 37.3172 31.6837 37.1336V28.1918C31.6837 28.0178 31.5464 27.8738 31.3804 27.8738C31.2145 27.8738 31.0772 28.0178 31.0772 28.1918V37.1336C31.0772 37.3172 31.0063 37.4938 30.8793 37.6264C30.4351 38.0903 29.6521 37.7758 29.6521 37.1336V25.2739C29.6521 25.116 29.6738 24.9588 29.7165 24.8068C30.1886 23.1252 32.5723 23.1252 33.0444 24.8068C33.0871 24.9588 33.1087 25.116 33.1087 25.2739V37.1336ZM40.3934 12.4688C40.3934 13.4811 39.5728 14.3017 38.5606 14.3017H37.2861C37.1086 14.3017 36.9368 14.3439 36.7709 14.4218C36.6107 14.5 36.4676 14.614 36.3531 14.7579C35.964 15.2439 35.5121 15.664 35.0143 16.0178C34.6824 16.2518 34.3045 16.3657 33.9099 16.4797C33.7439 16.5279 33.5722 16.5758 33.4005 16.6358C32.9428 16.792 32.5077 17.0078 32.1015 17.2718C31.821 17.4519 31.5522 17.6619 31.3004 17.8899L31.2946 17.896C31.1859 17.9917 31.0772 18.1 30.9797 18.2018L28.605 20.6799C28.5764 20.7099 28.5477 20.7099 28.5307 20.7099C28.5133 20.7099 28.485 20.7039 28.4564 20.6799C27.7524 19.9418 27.5807 18.8199 28.0271 17.8899C28.0386 17.866 28.0499 17.842 28.0672 17.8177C28.0795 17.8049 28.0833 17.7863 28.0915 17.7705C28.0963 17.7611 28.1009 17.7525 28.1071 17.7459C28.1207 17.7317 28.1285 17.7127 28.1393 17.6964C28.148 17.6833 28.1572 17.6707 28.1644 17.6559C28.1702 17.6437 28.1814 17.6319 28.1872 17.6198C28.1884 17.6175 28.1895 17.6152 28.1907 17.6129C28.1999 17.5948 28.2165 17.5842 28.2272 17.5669C28.2342 17.5554 28.2428 17.5426 28.2502 17.5315C28.2522 17.5286 28.2541 17.5259 28.256 17.524C28.2789 17.494 28.3017 17.4579 28.3245 17.4279C28.3705 17.374 28.4162 17.32 28.4619 17.2718L31.5979 13.9837C31.6837 13.894 31.7123 13.7558 31.6667 13.6357C31.6207 13.516 31.5062 13.4378 31.3862 13.4378H27.8567C26.6169 13.4378 26.1605 11.8078 27.2201 11.164C27.7923 10.816 28.4448 10.636 29.1028 10.636H38.5606C39.5728 10.636 40.3934 11.4566 40.3934 12.4688Z" fill="white"/>
<defs>
<linearGradient id="paint0_linear_2609_848" x1="0.817124" y1="4.28266e-07" x2="13.6249" y2="55.8479" gradientUnits="userSpaceOnUse">
<stop stop-color="#E1A56E"/>
<stop offset="0.428836" stop-color="#CC5500"/>
</linearGradient>
</defs>
</svg>
