<svg width="35" height="28" viewBox="0 0 35 28" fill="none" xmlns="http://www.w3.org/2000/svg">
<g filter="url(#filter0_d_1894_1997)">
<path fill-rule="evenodd" clip-rule="evenodd" d="M30.9993 4.79148C31.0103 5.43946 30.8829 7.29372 30.6302 10.3655H30.2391V20H28.9208V10.3655H28.7033V0C29.1471 0.0695067 29.5294 0.275785 29.8348 0.616592C30.6017 1.4148 30.9884 2.80942 30.9993 4.79148ZM27.5695 9.98206C27.5695 12.6816 26.6379 14.9888 24.7746 16.8901C22.907 18.796 20.6505 19.7466 18.005 19.7466C15.3684 19.7466 13.114 18.796 11.242 16.8901C9.37438 14.9888 8.43617 12.6816 8.43617 9.98206C8.43617 7.29148 9.37218 4.99552 11.242 3.0852C13.1162 1.17937 15.3706 0.221973 18.005 0.221973C20.6505 0.221973 22.907 1.17713 24.7746 3.0852C26.6379 4.99552 27.5695 7.29148 27.5695 9.98206ZM8.54603 5.20628C8.54603 5.86996 8.27577 6.41704 7.73526 6.84305C7.20134 7.26906 6.93108 7.6435 6.93108 7.95516V20H5.61275V7.95516C5.61275 7.64126 5.3425 7.26906 4.80857 6.84305C4.27026 6.41704 4 5.8722 4 5.20628C4 3.40359 4.3911 1.66368 5.1799 0V4.46188H5.87862V0H6.65204V4.46188H7.36613V0C8.15053 1.66368 8.54603 3.40359 8.54603 5.20628ZM24.9812 9.98206C24.9812 8.02242 24.3044 6.34753 22.9444 4.95964C21.5843 3.57175 19.9386 2.88117 18.005 2.88117C16.0781 2.88117 14.4368 3.57175 13.0833 4.95964C11.7232 6.34753 11.0399 8.02242 11.0399 9.98206C11.0399 11.9462 11.7232 13.6211 13.0833 15.0157C14.4368 16.4081 16.0781 17.1054 18.005 17.1054C19.9364 17.1054 21.5821 16.4081 22.9444 15.0157C24.3022 13.6211 24.9812 11.9462 24.9812 9.98206ZM24.2825 9.98206C24.2825 11.7534 23.6738 13.2646 22.4456 14.5179C21.2217 15.7646 19.7408 16.3924 18.005 16.3924C16.2802 16.3924 14.8015 15.7646 13.5755 14.5179C12.3516 13.2646 11.7386 11.7534 11.7386 9.98206C11.7386 8.22197 12.3516 6.713 13.5755 5.46637C14.8037 4.21973 16.2802 3.59193 18.005 3.59193C19.7408 3.59193 21.2239 4.21973 22.4456 5.46637C23.6738 6.713 24.2825 8.22197 24.2825 9.98206Z" fill="white"/>
</g>
<defs>
<filter id="filter0_d_1894_1997" x="0" y="0" width="35" height="28" filterUnits="userSpaceOnUse" color-interpolation-filters="sRGB">
<feFlood flood-opacity="0" result="BackgroundImageFix"/>
<feColorMatrix in="SourceAlpha" type="matrix" values="0 0 0 0 0 0 0 0 0 0 0 0 0 0 0 0 0 0 127 0" result="hardAlpha"/>
<feOffset dy="4"/>
<feGaussianBlur stdDeviation="2"/>
<feComposite in2="hardAlpha" operator="out"/>
<feColorMatrix type="matrix" values="0 0 0 0 0 0 0 0 0 0 0 0 0 0 0 0 0 0 0.25 0"/>
<feBlend mode="normal" in2="BackgroundImageFix" result="effect1_dropShadow_1894_1997"/>
<feBlend mode="normal" in="SourceGraphic" in2="effect1_dropShadow_1894_1997" result="shape"/>
</filter>
</defs>
</svg>
