<svg width="60" height="60" viewBox="0 0 60 60" fill="none" xmlns="http://www.w3.org/2000/svg">
<path d="M20.6667 32.3333L27.6667 39.3333L39.3333 23M58 30C58 33.9449 56.04 37.4356 53.044 39.5449C53.3668 41.3891 53.2404 43.2839 52.6756 45.0688C52.1107 46.8538 51.1241 48.4764 49.7991 49.7991C48.4764 51.1241 46.8538 52.1107 45.0688 52.6756C43.2839 53.2404 41.3891 53.3668 39.5449 53.044C38.4691 54.5761 37.04 55.8265 35.3785 56.6892C33.717 57.5519 31.8721 58.0015 30 58C26.0551 58 22.5644 56.04 20.4551 53.044C18.6109 53.3665 16.7162 53.24 14.9313 52.6752C13.1464 52.1104 11.5238 51.1238 10.2009 49.7991C8.87594 48.4764 7.88927 46.8538 7.32443 45.0688C6.75958 43.2839 6.63321 41.3891 6.956 39.5449C5.42385 38.4691 4.17349 37.04 3.3108 35.3785C2.4481 33.717 1.99848 31.8721 2 30C2 26.0551 3.96 22.5644 6.956 20.4551C6.63321 18.6109 6.75958 16.7161 7.32443 14.9312C7.88927 13.1462 8.87594 11.5236 10.2009 10.2009C11.5238 8.87616 13.1464 7.88963 14.9313 7.3248C16.7162 6.75998 18.6109 6.63347 20.4551 6.956C21.5311 5.42404 22.9602 4.17382 24.6217 3.31115C26.2831 2.44847 28.1279 1.99874 30 2C33.9449 2 37.4356 3.96 39.5449 6.956C41.3891 6.63347 43.2838 6.75998 45.0687 7.3248C46.8536 7.88963 48.4762 8.87616 49.7991 10.2009C51.1238 11.5238 52.1104 13.1464 52.6752 14.9313C53.24 16.7162 53.3665 18.6109 53.044 20.4551C54.5761 21.5309 55.8265 22.96 56.6892 24.6215C57.5519 26.283 58.0015 28.1279 58 30Z" stroke="white" stroke-width="4" stroke-linecap="round" stroke-linejoin="round"/>
</svg>
