<svg width="29" height="28" viewBox="0 0 29 28" fill="none" xmlns="http://www.w3.org/2000/svg">
<path d="M2.54863 9.29338C2.30512 9.33594 2.06494 9.15828 2.15176 8.92683C3.16563 6.2458 4.9668 4.01171 7.23922 2.45082C9.50938 0.891055 12.2463 0 15.1355 0C18.9638 0 22.4302 1.53899 24.9389 4.02575C27.4475 6.5125 29 9.94871 29 13.7437C29 17.1052 27.776 20.1899 25.7449 22.5829C23.6831 25.0124 20.7899 26.7243 17.5025 27.2858C17.0028 27.3703 16.8434 26.7653 16.9921 26.2809C17.0158 26.2036 17.0375 26.1257 17.0571 26.0473C17.2066 25.449 17.6327 24.9169 18.2273 24.7534C20.4989 24.1288 22.4881 22.8333 23.9624 21.0962C25.6446 19.113 26.659 16.5482 26.659 13.7437C26.659 10.5893 25.3688 7.73314 23.2838 5.66637C21.1989 3.59959 18.3176 2.32056 15.1355 2.32056C12.7266 2.32056 10.449 3.06002 8.56518 4.35421C7.05658 5.39041 5.79842 6.78214 4.92408 8.4334C4.66258 8.92727 4.12718 9.21607 3.56837 9.2114C3.22665 9.20854 2.88475 9.23463 2.54863 9.29338ZM10.8676 12.9537C11.4251 12.9537 11.877 13.4056 11.877 13.963V16.7879C11.877 17.1839 12.198 17.505 12.594 17.505C12.8495 17.505 13.0245 17.4741 13.1185 17.4129C13.2131 17.3511 13.2601 17.2108 13.2601 16.9907V13.963C13.2601 13.4056 13.712 12.9537 14.2695 12.9537C14.8269 12.9537 15.2788 13.4056 15.2788 13.963V16.3601C15.2788 16.9098 15.242 17.3528 15.1678 17.6891C15.0936 18.0255 14.9559 18.3101 14.7537 18.5431C14.5521 18.7762 14.2763 18.9379 13.9262 19.0283C13.5762 19.1187 13.1219 19.1641 12.5634 19.1641C12.005 19.1641 11.5524 19.1187 11.2058 19.0283C10.8597 18.9379 10.585 18.7762 10.3833 18.5431C10.1817 18.3101 10.0435 18.0255 9.9693 17.6891C9.89567 17.3528 9.85829 16.9098 9.85829 16.3601V13.963C9.85829 13.4056 10.3102 12.9537 10.8676 12.9537ZM17.0196 19.0504C16.5935 18.9894 16.3221 18.5785 16.3969 18.1545C16.4776 17.6971 16.9269 17.4085 17.387 17.4727C17.6805 17.5137 17.957 17.5342 18.2162 17.5342C18.5913 17.5342 18.9114 17.5229 19.1764 17.5005C19.3116 17.4891 19.4124 17.3741 19.4124 17.2384C19.4124 17.0983 19.3052 16.9815 19.1656 16.9696L18.5039 16.9132C17.6826 16.8419 17.119 16.6527 16.8132 16.3455C16.5068 16.0379 16.3538 15.5836 16.3538 14.9817C16.3538 14.1541 16.5407 13.5848 16.914 13.2743C17.2873 12.9638 17.9216 12.8083 18.8166 12.8083C19.4115 12.8083 19.9679 12.844 20.4855 12.9155C20.9117 12.9743 21.1853 13.3822 21.1164 13.8068C21.0448 14.2477 20.6314 14.5438 20.187 14.4989C19.9173 14.4716 19.6826 14.4579 19.4827 14.4579C19.2109 14.4579 18.9689 14.4664 18.7564 14.4833C18.6233 14.4939 18.5237 14.607 18.5237 14.7406C18.5237 14.8773 18.6277 14.9914 18.7638 15.0042L19.251 15.0497C20.1323 15.1339 20.7412 15.336 21.0777 15.6561C21.4141 15.9767 21.5823 16.4213 21.5823 16.9907C21.5823 17.3983 21.5251 17.7425 21.4107 18.0238C21.2963 18.3056 21.1604 18.519 21.0018 18.6644C20.8437 18.8098 20.62 18.9216 20.3306 18.9991C20.0411 19.0771 19.7874 19.1237 19.5688 19.14C19.3501 19.1563 19.059 19.1641 18.6954 19.1641C18.1081 19.1641 17.5494 19.1261 17.0196 19.0504ZM11.7443 10.2083C12.0483 10.1823 12.3597 10.3815 12.3871 10.6853C12.4054 10.8886 12.2893 11.0844 12.089 11.124C11.921 11.1572 11.7324 11.1738 11.523 11.1738C11.1644 11.1738 10.8767 11.1362 10.6592 11.061C10.4423 10.9863 10.2712 10.869 10.1466 10.7078C10.0225 10.5467 9.93532 10.3575 9.88604 10.1407C9.83733 9.92344 9.81241 9.65562 9.81241 9.33782C9.81241 9.01947 9.83733 8.75109 9.88604 8.53211C9.93532 8.31314 10.0225 8.12336 10.1466 7.96222C10.3884 7.65173 10.8319 7.4962 11.4776 7.4962C11.6209 7.4962 11.7903 7.51024 11.9846 7.53831C12.0046 7.54119 12.024 7.54414 12.0429 7.54716C12.2664 7.58284 12.3865 7.80057 12.3426 8.02258C12.2906 8.2858 12.0332 8.44968 11.7656 8.42992C11.6998 8.42506 11.6359 8.42263 11.5739 8.42263C11.37 8.42263 11.2284 8.44116 11.1491 8.47877C11.0698 8.51639 11.0302 8.59107 11.0302 8.70336V9.72396C11.0302 9.986 11.2156 10.2193 11.4776 10.2193C11.5695 10.2193 11.6584 10.2157 11.7443 10.2083ZM13.8934 10.8117C13.8552 10.9745 13.71 11.0896 13.5428 11.0896H13.3745C12.9995 11.0896 12.7258 10.7351 12.8207 10.3724L13.3293 8.42699C13.4597 7.92829 13.9103 7.58042 14.4257 7.58042C14.9412 7.58042 15.3918 7.92837 15.5222 8.42715L16.0306 10.3727C16.1253 10.7353 15.8517 11.0896 15.4769 11.0896H15.3088C15.1416 11.0896 14.9964 10.9745 14.9582 10.8117C14.9201 10.6489 14.7748 10.5338 14.6076 10.5338H14.244C14.0767 10.5338 13.9315 10.6489 13.8934 10.8117ZM14.4251 8.65845C14.342 8.65845 14.2701 8.7166 14.2527 8.79796L14.1461 9.29781C14.1084 9.47452 14.2432 9.64102 14.4238 9.64102C14.6039 9.64102 14.7386 9.47552 14.7019 9.29919L14.5977 8.79882C14.5807 8.71705 14.5087 8.65845 14.4251 8.65845ZM18.8687 10.6404C18.8687 10.8885 18.6676 11.0896 18.4195 11.0896H17.7361C17.1107 11.0896 16.6036 10.5826 16.6036 9.95709V8.14654C16.6036 7.83388 16.8571 7.58042 17.1697 7.58042C17.4824 7.58042 17.7359 7.83388 17.7359 8.14654V9.62485C17.7359 9.93767 17.9895 10.1913 18.3023 10.1913H18.4195C18.6676 10.1913 18.8687 10.3924 18.8687 10.6404ZM21.6157 10.6404C21.6157 10.8885 21.4146 11.0896 21.1666 11.0896H20.4829C19.8573 11.0896 19.3501 10.5824 19.3501 9.9568V8.14683C19.3501 7.83401 19.6037 7.58042 19.9165 7.58042C20.2293 7.58042 20.4829 7.83401 20.4829 8.14683V9.62485C20.4829 9.93767 20.7365 10.1913 21.0493 10.1913H21.1666C21.4146 10.1913 21.6157 10.3924 21.6157 10.6404ZM4.30184 18.0771C4.71645 19.0176 5.21092 19.9311 5.87192 20.793C6.59012 21.7323 7.5145 22.6161 8.7504 23.419C8.98432 23.5661 9.24204 23.3768 9.42499 23.2309C9.53204 23.145 9.66911 23.0052 9.81467 22.8507C10.389 22.2489 11.1004 21.5027 11.9347 22.0041C11.9529 22.0147 11.967 22.0271 11.9851 22.0377L14.7333 24.0248C14.7418 24.0304 14.7509 24.0416 14.7594 24.0472C15.1174 24.3521 15.2318 24.7766 15.1853 25.2364C15.0585 26.3948 14.1415 27.3599 13.0534 27.7148C12.4802 27.9045 11.8577 27.9736 11.2641 27.9955C10.3324 28.0309 9.48219 27.8529 8.63315 27.4902C7.8028 27.1336 6.98547 26.6059 6.10358 25.9248L6.03844 25.8731C5.63346 25.5582 5.19676 25.2202 4.77479 24.8322C3.2285 23.3903 1.7145 21.387 0.81731 19.2658C0.0645565 17.4853 -0.247533 15.6162 0.221451 13.9177C0.480299 12.9868 0.984967 12.1688 1.76208 11.6769C2.44006 11.2457 3.3095 11.0638 4.38567 11.2766C4.50971 11.299 4.61336 11.3833 4.65981 11.4956L6.19307 14.8475C6.42926 15.2305 6.4253 15.5836 6.23669 15.9183C6.08036 16.1923 5.79999 16.4286 5.42956 16.6392C5.31911 16.7139 5.18883 16.7874 5.0529 16.8655C4.71702 17.0558 4.34659 17.268 4.22538 17.5404C4.12795 17.7588 4.21405 17.8778 4.30184 18.0771Z" fill="url(#paint0_linear_2296_3154)"/>
<defs>
<linearGradient id="paint0_linear_2296_3154" x1="1.48372" y1="5.1428e-09" x2="5.81704" y2="30.2711" gradientUnits="userSpaceOnUse">
<stop stop-color="#E1A56E"/>
<stop offset="0.66656" stop-color="#CC5500"/>
</linearGradient>
</defs>
</svg>
