<svg width="87" height="93" viewBox="0 0 87 93" fill="none" xmlns="http://www.w3.org/2000/svg">
<path d="M86.0577 0H50.0338C47.6515 0 45.3042 0.669043 43.2417 1.91509L37.1485 5.60794C31.6784 8.92317 25.4043 10.676 19.008 10.676H10.4195C8.1611 10.676 6.31146 12.5921 6.31146 14.9723V19.0505C6.31146 22.2561 5.87108 25.4465 5.00268 28.5322L0.0350058 46.1838C0.0170297 46.2768 0 46.3699 0 46.4619V92.0133C0 92.5527 0.426693 93 0.94232 93H50.7983C50.7983 93 50.7983 93 50.8162 93H63.4231C63.4581 93 63.494 93 63.512 93C63.5417 93 63.5591 93 63.5856 92.9886C63.5959 92.9841 63.6068 92.9812 63.618 92.9812C63.6359 92.9812 63.6539 92.9624 63.6889 92.9624C63.7162 92.9624 63.7391 92.9385 63.7643 92.928C63.7689 92.9261 63.7734 92.9248 63.7779 92.9248C63.7779 92.9248 63.8026 92.8989 63.8187 92.8903C63.8253 92.8868 63.832 92.8836 63.8387 92.8789C63.8463 92.8735 63.8506 92.8715 63.8587 92.8668C63.8663 92.8623 63.87 92.8467 63.8772 92.8415C63.8878 92.8339 63.8984 92.8304 63.909 92.8234C63.9171 92.8181 63.9277 92.8153 63.9342 92.8082C63.9352 92.8071 63.9361 92.8058 63.9368 92.8043C63.9394 92.7988 63.9409 92.7926 63.9451 92.7882C63.9525 92.7802 63.9602 92.7726 63.9679 92.7669C63.9758 92.7612 64.0029 92.7458 64.0097 92.7387C64.0276 92.7209 64.0447 92.7021 64.0626 92.6833C64.0747 92.6707 64.0867 92.6581 64.0987 92.6459C64.1105 92.6338 64.1223 92.6216 64.1336 92.6091C64.1441 92.5981 64.1545 92.5872 64.1614 92.5763C64.1701 92.5626 64.176 92.5462 64.1875 92.5348C64.2046 92.516 64.2046 92.4972 64.2225 92.4784L64.2405 92.4606C64.2472 92.4536 64.2514 92.4466 64.255 92.4396C64.2671 92.4158 64.2935 92.3943 64.2935 92.3676C64.2935 92.3488 64.3115 92.33 64.3115 92.3112C64.3115 92.2837 64.3337 92.26 64.3438 92.2344C64.3459 92.229 64.3474 92.2236 64.3474 92.2181C64.3474 92.1993 64.3474 92.1993 64.3474 92.1815C64.3474 92.1695 64.3474 92.1574 64.3521 92.1404C64.3586 92.1172 64.3654 92.0938 64.3654 92.0697C64.3654 92.0321 64.3654 91.9954 64.3654 91.9766V46.4619C64.3654 46.3699 64.3474 46.2768 64.3294 46.1838L59.1393 27.7148C58.7696 26.3994 59.1871 24.9671 60.3293 24.2172C61.4665 23.4729 62.6936 22.8771 63.9737 22.4496C64.4714 22.2823 64.987 22.1339 65.4856 21.9844C66.8007 21.5945 68.1697 21.2035 69.4677 20.292C71.1575 19.0836 72.6864 17.6515 74.0194 16.0145C74.1973 15.7908 74.4111 15.6235 74.66 15.4939C74.9088 15.3633 75.1756 15.3078 75.4604 15.3078H86.0577C86.5733 15.3078 87 14.8615 87 14.3221V0.98575C87 0.446359 86.5733 0 86.0577 0ZM8.1961 14.9545C8.1961 13.6897 9.19235 12.6475 10.4015 12.6475H43.0835C47.4978 12.6475 49.7595 17.9384 46.7092 21.1293C45.703 22.1818 44.4092 23.0078 42.9531 23.0078H16.2494C11.8017 23.0078 8.1961 19.4022 8.1961 14.9545ZM1.88464 50.0601C1.88464 47.7717 2.19829 45.4941 2.81684 43.2909L4.38721 37.6975C6.49242 30.1989 13.3297 25.0169 21.1181 25.0169H34.2192C39.3207 25.0169 43.1523 30.8466 46.6912 34.5211C47.0999 34.9486 47.6695 35.1911 48.2561 35.1911C48.8427 35.1911 49.3942 34.9486 49.8209 34.5211C51.0488 33.2366 53.1771 34.4514 52.6956 36.1619L49.8739 46.1838C49.8559 46.2768 49.838 46.3699 49.838 46.4619V67.0509C49.838 80.2928 39.1032 91.0275 25.8613 91.0275C12.6194 91.0275 1.88464 80.2928 1.88464 67.0508V50.0601ZM55.8678 88.1001C56.5454 87.3943 57.6746 87.3955 58.3507 88.1029C59.3959 89.1966 58.6207 91.0097 57.1079 91.0097C55.5932 91.0097 54.8188 89.1928 55.8678 88.1001ZM62.4808 84.1106C62.4808 86.1049 60.0507 87.0824 58.6697 85.6437C58.274 85.2314 58.053 84.6821 58.053 84.1106V56.3946C58.053 55.8552 57.6263 55.4089 57.1107 55.4089C56.595 55.4089 56.1683 55.8552 56.1683 56.3946V84.1106C56.1683 84.6821 55.9474 85.2314 55.5517 85.6437C54.1707 87.0824 51.7406 86.1049 51.7406 84.1106V47.3525C51.7406 46.8607 51.8081 46.3713 51.9413 45.8979C53.4104 40.6773 60.8109 40.6773 62.28 45.8979C62.4132 46.3713 62.4808 46.8607 62.4808 47.3525V84.1106ZM85.1154 7.65342C85.1154 10.7915 82.5715 13.3353 79.4334 13.3353H75.4604C74.9088 13.3353 74.3752 13.466 73.8596 13.7075C73.3619 13.95 72.9172 14.3033 72.5615 14.7496C71.3524 16.256 69.9484 17.5584 68.4015 18.655C67.3702 19.3805 66.1961 19.7338 64.97 20.0871C64.4543 20.2366 63.9207 20.385 63.3871 20.5711C61.9651 21.0551 60.6131 21.7241 59.351 22.5426C58.4797 23.1008 57.6443 23.752 56.8618 24.4587L56.8439 24.4775C56.5061 24.7744 56.1683 25.1099 55.8656 25.4256L48.4869 33.1077C48.398 33.2008 48.309 33.2008 48.2561 33.2008C48.2021 33.2008 48.1142 33.182 48.0252 33.1077C45.8378 30.8195 45.3042 27.3417 46.6912 24.4587C46.7272 24.3845 46.7622 24.3102 46.8161 24.235C46.8542 24.1952 46.8661 24.1374 46.8913 24.0884C46.9063 24.0593 46.9205 24.0327 46.94 24.0123C46.9821 23.9683 47.0065 23.9094 47.0401 23.8587C47.067 23.8181 47.0957 23.7791 47.1179 23.7332C47.1359 23.6956 47.1709 23.659 47.1889 23.6214C47.1924 23.6142 47.1959 23.607 47.1996 23.5999C47.2284 23.5439 47.2799 23.511 47.3129 23.4574C47.3347 23.4219 47.3614 23.3821 47.3847 23.3475C47.3907 23.3386 47.3967 23.3304 47.4027 23.3245C47.4736 23.2314 47.5446 23.1196 47.6156 23.0266C47.7584 22.8593 47.9003 22.6921 48.0422 22.5426L57.7862 12.3496C58.053 12.0715 58.1419 11.6429 58 11.2708C57.8571 10.8997 57.5014 10.6572 57.1286 10.6572H46.1535C42.309 10.6572 40.8963 5.60133 44.184 3.60848C45.9618 2.5297 47.9893 1.9715 50.0338 1.9715H79.4334C82.5715 1.9715 85.1154 4.51538 85.1154 7.65342Z" fill="url(#paint0_linear_727_1009)"/>
<defs>
<linearGradient id="paint0_linear_727_1009" x1="4.45116" y1="1.70815e-08" x2="20.3142" y2="100.09" gradientUnits="userSpaceOnUse">
<stop stop-color="#E1A56E"/>
<stop offset="0.66656" stop-color="#CC5500"/>
</linearGradient>
</defs>
</svg>
