<svg width="13" height="14" viewBox="0 0 13 14" fill="none" xmlns="http://www.w3.org/2000/svg">
<path d="M12.8592 0H7.47631C7.12034 0 6.7696 0.100716 6.46141 0.288293L4.30138 1.60714H1.55693C1.21947 1.60714 0.943092 1.89558 0.943092 2.2539V3.59509L0.00523075 6.9524C0.00254467 6.9664 0 6.98041 0 6.99426V13.8515C0 13.9327 0.0637587 14 0.140806 14H7.59054C7.59054 14 7.59054 14 7.59323 14H9.47701C9.48224 14 9.48761 14 9.4903 14C9.49553 14 9.49822 14 9.50359 13.9972H9.50613C9.50882 13.9972 9.51151 13.9943 9.51674 13.9943C9.51942 13.9943 9.51942 13.9943 9.52211 13.9915C9.52479 13.9915 9.52748 13.9887 9.53003 13.9887C9.53003 13.9887 9.53271 13.9887 9.53271 13.986C9.5354 13.9832 9.53808 13.9832 9.54077 13.9803C9.54077 13.9803 9.54331 13.9803 9.54331 13.9775C9.546 13.9747 9.54869 13.9747 9.55137 13.972C9.55137 13.972 9.55406 13.972 9.55406 13.9692C9.5566 13.9663 9.55929 13.9635 9.56198 13.9635C9.56198 13.9635 9.56198 13.9635 9.56466 13.9607C9.56735 13.958 9.56989 13.9552 9.57258 13.9523C9.57526 13.9495 9.57795 13.9467 9.58064 13.944C9.58064 13.944 9.58064 13.944 9.58318 13.9411C9.58587 13.9383 9.58855 13.9355 9.58855 13.9327L9.59124 13.93C9.59378 13.9271 9.59378 13.9243 9.59647 13.9215L9.59916 13.9188C9.60184 13.916 9.60184 13.9131 9.60453 13.9103C9.60453 13.9075 9.60707 13.9075 9.60707 13.9048C9.60707 13.902 9.60976 13.8991 9.60976 13.8963C9.60976 13.8935 9.60976 13.8935 9.61244 13.8908C9.61244 13.888 9.61513 13.8851 9.61513 13.8823C9.61513 13.8795 9.61513 13.8795 9.61513 13.8768C9.61513 13.874 9.61513 13.8711 9.61782 13.8655C9.61782 13.8628 9.61782 13.8628 9.61782 13.86C9.61782 13.8543 9.61782 13.8488 9.61782 13.8459V6.99426C9.61782 6.98041 9.61513 6.9664 9.61244 6.9524L8.74626 3.84718C8.83136 3.77433 8.9217 3.70713 9.01472 3.6456C9.18465 3.53356 9.36801 3.44387 9.55929 3.37951C9.63365 3.35433 9.7107 3.33198 9.7852 3.30948C9.98171 3.25078 10.1863 3.19193 10.3802 3.05471C10.6327 2.8728 10.8612 2.65721 11.0604 2.41078C11.087 2.37711 11.1189 2.35193 11.1561 2.33241C11.1933 2.31275 11.2331 2.3044 11.2757 2.3044H12.8592C12.9362 2.3044 13 2.23721 13 2.15601V0.148392C13 0.0671938 12.9362 0 12.8592 0ZM1.22471 2.25122C1.22471 2.06081 1.37357 1.90392 1.55424 1.90392H8.19109L6.97953 3.18075C6.89711 3.26762 6.82812 3.36267 6.7696 3.46354H1.22471V2.25122ZM0.281613 7.01676L1.18752 3.76598H6.64208C6.49336 4.26718 6.6155 4.81873 6.97685 5.19672C7.03792 5.26108 7.12303 5.29758 7.21068 5.29758C7.29833 5.29758 7.38075 5.26108 7.44451 5.19672L8.15122 4.45192L7.45242 6.9524C7.44974 6.9664 7.44705 6.98041 7.44705 6.99426V13.7031H0.281613V7.01676ZM8.53378 13.0675L9.13418 13.7004H7.93068L8.53378 13.0675ZM9.3362 13.4903L8.67458 12.7959V8.48951C8.67458 8.40831 8.61082 8.34112 8.53378 8.34112C8.45673 8.34112 8.39297 8.40831 8.39297 8.48951V12.7959L7.73135 13.4903V7.01676L8.53378 4.14397L9.3362 7.01676V13.4903ZM12.7184 2.00747H11.2757C11.1933 2.00747 11.1135 2.02714 11.0365 2.06349C10.9621 2.09999 10.8957 2.15318 10.8425 2.22038C10.6618 2.44714 10.4521 2.6432 10.2209 2.80828C10.0668 2.91749 9.89137 2.97068 9.70815 3.02387C9.63111 3.04637 9.55137 3.06872 9.47164 3.09673C9.25916 3.16958 9.05714 3.2703 8.86855 3.39351C8.73834 3.47754 8.61351 3.57557 8.4966 3.68195L8.49391 3.68478C8.44344 3.72948 8.39297 3.77999 8.34773 3.82751L7.24517 4.98396C7.23188 4.99797 7.21859 4.99797 7.21068 4.99797C7.20262 4.99797 7.18947 4.99514 7.17618 4.98396C6.84933 4.6395 6.7696 4.11596 6.97685 3.68195C6.98222 3.67078 6.98745 3.6596 6.99551 3.64828C6.99805 3.6456 6.99805 3.63994 7.00074 3.63711C7.00611 3.62876 7.0088 3.62027 7.01403 3.61476C7.01671 3.61193 7.0194 3.60642 7.02209 3.60358C7.02732 3.59241 7.03523 3.58392 7.04061 3.57274C7.04329 3.56708 7.04852 3.56157 7.05121 3.55591C7.0539 3.5504 7.05658 3.54473 7.06181 3.5419C7.06718 3.53639 7.06987 3.53073 7.0751 3.52239C7.07779 3.51955 7.08047 3.51389 7.08316 3.51121C7.09376 3.49721 7.10436 3.48037 7.11497 3.46637C7.13631 3.44119 7.15752 3.41601 7.17873 3.39351L8.63472 1.85908C8.67458 1.81721 8.68787 1.7527 8.66667 1.69668C8.64532 1.64081 8.59216 1.60431 8.53646 1.60431H4.86461L6.60221 0.543212C6.86785 0.380815 7.17081 0.296785 7.47631 0.296785H12.7184V2.00747Z" fill="#CC5500"/>
</svg>
