<svg width="12" height="12" viewBox="0 0 12 12" fill="none" xmlns="http://www.w3.org/2000/svg">
<path d="M3.2543 5.03186L4.69195 5.01264L4.79906 5.04053C5.30344 5.33141 5.75484 5.69447 6.14578 6.12598C6.66164 5.29601 7.21102 4.53402 7.79156 3.83319C8.42742 3.0651 9.10219 2.3685 9.81094 1.7326L9.95133 1.67869H11.52L11.2038 2.03004C10.2316 3.11034 9.34969 4.22673 8.55281 5.37805C7.75547 6.53054 7.04273 7.72006 6.40898 8.94451L6.21188 9.32516L6.03047 8.93748C5.36883 7.51732 4.43602 6.30787 3.13711 5.41602L3.2543 5.03186ZM5.99953 0C6.9007 0 7.785 0.200637 8.59734 0.59066C8.64961 0.615739 8.67211 0.679259 8.64703 0.731762C8.63977 0.746763 8.62945 0.75942 8.61703 0.769264L7.73719 1.48931C7.72222 1.50184 7.70411 1.51003 7.68481 1.51301C7.66552 1.51598 7.64578 1.51362 7.62773 1.50618C7.10602 1.31726 6.55547 1.22234 6.0007 1.22234C4.72875 1.22234 3.52148 1.72135 2.62242 2.6214C1.72266 3.52169 1.2232 4.72692 1.2232 5.99988C1.2232 7.27214 1.72219 8.47854 2.62219 9.37813C3.52266 10.2782 4.72758 10.7777 6.0007 10.7777C7.27148 10.7777 8.48016 10.2782 9.37852 9.37836C10.2788 8.47854 10.7777 7.27261 10.7777 5.99988C10.7777 5.69049 10.7494 5.38602 10.6898 5.08202C10.6835 5.04897 10.6934 5.01592 10.714 4.99225L11.49 4.00875C11.5266 3.96328 11.5936 3.95648 11.6391 3.99305C11.6562 4.00688 11.6677 4.02492 11.6737 4.04461C11.8905 4.67348 12 5.33492 12 5.99988C12 7.59443 11.3702 9.11468 10.2427 10.2423C9.11531 11.3695 7.59469 12 6.0007 12C4.40625 12 2.88609 11.3697 1.75852 10.2423L1.7543 10.2376C0.628359 9.10999 0 7.59349 0 5.99988C0 4.40557 0.629766 2.88533 1.75734 1.75768L1.76203 1.75346C2.88961 0.628396 4.40672 0 5.99953 0Z" fill="#2EAA0F"/>
</svg>
