<svg width="14" height="14" viewBox="0 0 14 14" fill="none" xmlns="http://www.w3.org/2000/svg">
<path d="M7 0C8.93315 0 10.683 0.783279 11.9496 2.05043C13.2161 3.317 14 5.06744 14 7C14 8.93256 13.2167 10.683 11.9496 11.9496C10.683 13.2161 8.93256 14 7 14C5.06685 14 3.317 13.2167 2.05043 11.9496C0.783279 10.683 0 8.93256 0 7C0 5.06744 0.783279 3.317 2.05043 2.05043C3.317 0.783279 5.06685 0 7 0ZM6.42772 3.54803C6.42772 3.33645 6.59923 3.16494 6.81081 3.16494C7.0224 3.16494 7.1939 3.33645 7.1939 3.54803V7.08428L9.85434 8.66145C10.0359 8.76871 10.0966 9.00328 9.98931 9.1854C9.88204 9.36693 9.64747 9.42763 9.46535 9.32037L6.63695 7.6436C6.51259 7.57995 6.42772 7.45087 6.42772 7.30235V3.54803ZM11.4079 2.59207C10.2799 1.46401 8.72156 0.766187 7 0.766187C5.27844 0.766187 3.72013 1.46401 2.59207 2.59207C1.46401 3.72013 0.766187 5.27844 0.766187 7C0.766187 8.72156 1.46401 10.2799 2.59207 11.4079C3.72013 12.536 5.27844 13.2338 7 13.2338C8.72156 13.2338 10.2799 12.536 11.4079 11.4079C12.536 10.2799 13.2338 8.72156 13.2338 7C13.2338 5.27844 12.536 3.72013 11.4079 2.59207Z" fill="#CC5500"/>
</svg>
